<svg width="208" height="45" viewBox="0 0 208 45" fill="none" xmlns="http://www.w3.org/2000/svg">
<path fill-rule="evenodd" clip-rule="evenodd" d="M26.8908 15.2172L20 9.15434L0 26.7514V2.5H40V10.4113C40 16.4741 31.7647 19.5055 26.8908 15.2172ZM13.1092 29.7828L20 35.8457L40 18.2486V42.5H0V34.5888C0 28.5259 8.23529 25.4945 13.1092 29.7828Z" fill="#FFBB54"/>
<path d="M72.78 35.36C71.2 35.36 69.74 35.08 68.4 34.52C67.08 33.94 65.92 33.13 64.92 32.09C63.94 31.05 63.18 29.83 62.64 28.43C62.1 27.03 61.83 25.5 61.83 23.84C61.83 22.16 62.1 20.62 62.64 19.22C63.18 17.82 63.94 16.6 64.92 15.56C65.9 14.52 67.06 13.72 68.4 13.16C69.74 12.58 71.2 12.29 72.78 12.29C74.32 12.29 75.7 12.56 76.92 13.1C78.16 13.64 79.2 14.34 80.04 15.2C80.9 16.06 81.51 16.98 81.87 17.96L79.17 19.19C78.65 17.95 77.84 16.95 76.74 16.19C75.64 15.41 74.32 15.02 72.78 15.02C71.22 15.02 69.83 15.39 68.61 16.13C67.41 16.87 66.47 17.9 65.79 19.22C65.11 20.54 64.77 22.08 64.77 23.84C64.77 25.58 65.11 27.11 65.79 28.43C66.47 29.75 67.41 30.78 68.61 31.52C69.83 32.26 71.22 32.63 72.78 32.63C74.32 32.63 75.64 32.25 76.74 31.49C77.84 30.71 78.65 29.7 79.17 28.46L81.87 29.69C81.51 30.67 80.9 31.59 80.04 32.45C79.2 33.31 78.16 34.01 76.92 34.55C75.7 35.09 74.32 35.36 72.78 35.36ZM92.9259 35.36C91.3659 35.36 89.9559 35 88.6959 34.28C87.4359 33.54 86.4359 32.53 85.6959 31.25C84.9559 29.97 84.5859 28.52 84.5859 26.9C84.5859 25.28 84.9459 23.84 85.6659 22.58C86.4059 21.32 87.4059 20.32 88.6659 19.58C89.9259 18.84 91.3459 18.47 92.9259 18.47C94.4859 18.47 95.8959 18.84 97.1559 19.58C98.4159 20.3 99.4059 21.29 100.126 22.55C100.866 23.81 101.236 25.26 101.236 26.9C101.236 28.54 100.856 30 100.096 31.28C99.3359 32.54 98.3259 33.54 97.0659 34.28C95.8259 35 94.4459 35.36 92.9259 35.36ZM92.9259 32.66C93.9259 32.66 94.8259 32.41 95.6259 31.91C96.4459 31.41 97.0859 30.72 97.5459 29.84C98.0259 28.96 98.2659 27.98 98.2659 26.9C98.2659 25.8 98.0259 24.83 97.5459 23.99C97.0859 23.13 96.4459 22.45 95.6259 21.95C94.8259 21.43 93.9259 21.17 92.9259 21.17C91.9059 21.17 90.9859 21.43 90.1659 21.95C89.3659 22.45 88.7259 23.13 88.2459 23.99C87.7659 24.83 87.5259 25.8 87.5259 26.9C87.5259 27.98 87.7659 28.96 88.2459 29.84C88.7259 30.72 89.3659 31.41 90.1659 31.91C90.9859 32.41 91.9059 32.66 92.9259 32.66ZM110.605 35.36C109.445 35.36 108.395 35.09 107.455 34.55C106.535 34.01 105.815 33.26 105.295 32.3C104.795 31.32 104.545 30.2 104.545 28.94V18.83H107.335V28.64C107.335 29.44 107.495 30.14 107.815 30.74C108.155 31.34 108.615 31.81 109.195 32.15C109.795 32.49 110.475 32.66 111.235 32.66C111.995 32.66 112.665 32.49 113.245 32.15C113.845 31.81 114.305 31.32 114.625 30.68C114.965 30.04 115.135 29.28 115.135 28.4V18.83H117.955V35H115.225V31.85L115.675 32.12C115.295 33.14 114.645 33.94 113.725 34.52C112.825 35.08 111.785 35.36 110.605 35.36ZM122.277 35V18.83H125.007V21.98L124.557 21.71C124.957 20.69 125.597 19.9 126.477 19.34C127.377 18.76 128.427 18.47 129.627 18.47C130.787 18.47 131.817 18.73 132.717 19.25C133.637 19.77 134.357 20.49 134.877 21.41C135.417 22.33 135.687 23.37 135.687 24.53V35H132.867V25.43C132.867 24.53 132.707 23.77 132.387 23.15C132.067 22.53 131.607 22.05 131.007 21.71C130.427 21.35 129.757 21.17 128.997 21.17C128.237 21.17 127.557 21.35 126.957 21.71C126.377 22.05 125.917 22.54 125.577 23.18C125.237 23.8 125.067 24.55 125.067 25.43V35H122.277ZM146.25 35.18C144.67 35.18 143.45 34.73 142.59 33.83C141.75 32.93 141.33 31.66 141.33 30.02V21.5H138.39V18.83H138.99C139.71 18.83 140.28 18.61 140.7 18.17C141.12 17.73 141.33 17.15 141.33 16.43V15.11H144.12V18.83H147.75V21.5H144.12V29.93C144.12 30.47 144.2 30.94 144.36 31.34C144.54 31.74 144.83 32.06 145.23 32.3C145.63 32.52 146.16 32.63 146.82 32.63C146.96 32.63 147.13 32.62 147.33 32.6C147.55 32.58 147.75 32.56 147.93 32.54V35C147.67 35.06 147.38 35.1 147.06 35.12C146.74 35.16 146.47 35.18 146.25 35.18ZM151.574 35V18.83H154.304V21.8L154.004 21.38C154.384 20.46 154.964 19.78 155.744 19.34C156.524 18.88 157.474 18.65 158.594 18.65H159.584V21.29H158.174C157.034 21.29 156.114 21.65 155.414 22.37C154.714 23.07 154.364 24.07 154.364 25.37V35H151.574ZM166.802 35.36C165.742 35.36 164.802 35.17 163.982 34.79C163.182 34.39 162.552 33.85 162.092 33.17C161.632 32.47 161.402 31.67 161.402 30.77C161.402 29.91 161.582 29.14 161.942 28.46C162.322 27.76 162.902 27.17 163.682 26.69C164.482 26.21 165.482 25.87 166.682 25.67L172.682 24.68V27.02L167.312 27.92C166.272 28.1 165.512 28.43 165.032 28.91C164.572 29.39 164.342 29.98 164.342 30.68C164.342 31.34 164.602 31.89 165.122 32.33C165.662 32.77 166.332 32.99 167.132 32.99C168.152 32.99 169.032 32.78 169.772 32.36C170.532 31.92 171.122 31.33 171.542 30.59C171.982 29.85 172.202 29.03 172.202 28.13V24.02C172.202 23.14 171.872 22.43 171.212 21.89C170.572 21.33 169.722 21.05 168.662 21.05C167.742 21.05 166.922 21.29 166.202 21.77C165.502 22.23 164.982 22.85 164.642 23.63L162.212 22.37C162.512 21.63 162.992 20.97 163.652 20.39C164.312 19.79 165.082 19.32 165.962 18.98C166.842 18.64 167.762 18.47 168.722 18.47C169.962 18.47 171.052 18.71 171.992 19.19C172.932 19.65 173.662 20.3 174.182 21.14C174.722 21.96 174.992 22.92 174.992 24.02V35H172.262V31.94L172.772 32.12C172.432 32.76 171.972 33.32 171.392 33.8C170.812 34.28 170.132 34.66 169.352 34.94C168.572 35.22 167.722 35.36 166.802 35.36ZM186.818 35.36C185.238 35.36 183.828 34.99 182.588 34.25C181.368 33.51 180.408 32.5 179.708 31.22C179.008 29.94 178.658 28.5 178.658 26.9C178.658 25.28 179.008 23.84 179.708 22.58C180.408 21.32 181.368 20.32 182.588 19.58C183.828 18.84 185.238 18.47 186.818 18.47C187.878 18.47 188.868 18.66 189.788 19.04C190.708 19.42 191.518 19.93 192.218 20.57C192.918 21.21 193.428 21.96 193.748 22.82L191.258 24.02C190.878 23.18 190.298 22.5 189.518 21.98C188.738 21.44 187.838 21.17 186.818 21.17C185.838 21.17 184.948 21.42 184.148 21.92C183.368 22.42 182.748 23.1 182.288 23.96C181.828 24.82 181.598 25.81 181.598 26.93C181.598 28.01 181.828 28.99 182.288 29.87C182.748 30.73 183.368 31.41 184.148 31.91C184.948 32.41 185.838 32.66 186.818 32.66C187.838 32.66 188.738 32.4 189.518 31.88C190.298 31.34 190.878 30.63 191.258 29.75L193.748 31.01C193.428 31.85 192.918 32.6 192.218 33.26C191.518 33.9 190.708 34.41 189.788 34.79C188.868 35.17 187.878 35.36 186.818 35.36ZM203.964 35.18C202.384 35.18 201.164 34.73 200.304 33.83C199.464 32.93 199.044 31.66 199.044 30.02V21.5H196.104V18.83H196.704C197.424 18.83 197.994 18.61 198.414 18.17C198.834 17.73 199.044 17.15 199.044 16.43V15.11H201.834V18.83H205.464V21.5H201.834V29.93C201.834 30.47 201.914 30.94 202.074 31.34C202.254 31.74 202.544 32.06 202.944 32.3C203.344 32.52 203.874 32.63 204.534 32.63C204.674 32.63 204.844 32.62 205.044 32.6C205.264 32.58 205.464 32.56 205.644 32.54V35C205.384 35.06 205.094 35.1 204.774 35.12C204.454 35.16 204.184 35.18 203.964 35.18Z" fill="#141522"/>
</svg>
